<svg width="16" height="16" viewBox="0 0 16 16" fill="none" xmlns="http://www.w3.org/2000/svg">
<path d="M5.4929 5.78267C5.45881 5.43892 5.3125 5.17187 5.05398 4.98153C4.79545 4.79119 4.4446 4.69602 4.00142 4.69602C3.70028 4.69602 3.44602 4.73864 3.23864 4.82386C3.03125 4.90625 2.87216 5.02131 2.76136 5.16903C2.65341 5.31676 2.59943 5.48438 2.59943 5.67188C2.59375 5.82812 2.62642 5.96449 2.69744 6.08097C2.77131 6.19744 2.87216 6.2983 3 6.38352C3.12784 6.46591 3.27557 6.53835 3.44318 6.60085C3.6108 6.66051 3.78977 6.71165 3.98011 6.75426L4.7642 6.94176C5.14489 7.02699 5.49432 7.14062 5.8125 7.28267C6.13068 7.42472 6.40625 7.59943 6.6392 7.80682C6.87216 8.0142 7.05256 8.25852 7.1804 8.53977C7.31108 8.82102 7.37784 9.14347 7.38068 9.5071C7.37784 10.0412 7.24148 10.5043 6.97159 10.8963C6.70455 11.2855 6.31818 11.5881 5.8125 11.804C5.30966 12.017 4.70313 12.1236 3.9929 12.1236C3.28835 12.1236 2.67472 12.0156 2.15199 11.7997C1.6321 11.5838 1.22585 11.2642 0.933239 10.8409C0.643466 10.4148 0.491477 9.88778 0.477273 9.25994H2.26278C2.28267 9.55256 2.36648 9.79687 2.5142 9.9929C2.66477 10.1861 2.86506 10.3324 3.11506 10.4318C3.3679 10.5284 3.65341 10.5767 3.97159 10.5767C4.28409 10.5767 4.5554 10.5312 4.78551 10.4403C5.01847 10.3494 5.19886 10.223 5.3267 10.0611C5.45455 9.89915 5.51847 9.71307 5.51847 9.50284C5.51847 9.30682 5.46023 9.14205 5.34375 9.00852C5.23011 8.875 5.0625 8.76136 4.84091 8.66761C4.62216 8.57386 4.35369 8.48864 4.03551 8.41193L3.08523 8.1733C2.34943 7.99432 1.76847 7.71449 1.34233 7.33381C0.916193 6.95312 0.704545 6.44034 0.707386 5.79545C0.704545 5.26705 0.84517 4.8054 1.12926 4.41051C1.41619 4.01562 1.80966 3.70739 2.30966 3.4858C2.80966 3.2642 3.37784 3.15341 4.0142 3.15341C4.66193 3.15341 5.22727 3.2642 5.71023 3.4858C6.19602 3.70739 6.57386 4.01562 6.84375 4.41051C7.11364 4.8054 7.25284 5.26278 7.26136 5.78267H5.4929Z" fill="black"/>
<path d="M8.80859 14.3828L8.04688 13.8672L13.7773 5.63281L14.5391 6.14844L8.80859 14.3828ZM15.0469 10C15.0469 10.8724 14.8815 11.6146 14.5508 12.2266C14.2227 12.8385 13.7747 13.306 13.207 13.6289C12.6419 13.9492 12.0065 14.1094 11.3008 14.1094C10.5898 14.1094 9.95182 13.9479 9.38672 13.625C8.82161 13.3021 8.375 12.8346 8.04688 12.2227C7.71875 11.6107 7.55469 10.8698 7.55469 10C7.55469 9.1276 7.71875 8.38542 8.04688 7.77344C8.375 7.16146 8.82161 6.69531 9.38672 6.375C9.95182 6.05208 10.5898 5.89062 11.3008 5.89062C12.0065 5.89062 12.6419 6.05208 13.207 6.375C13.7747 6.69531 14.2227 7.16146 14.5508 7.77344C14.8815 8.38542 15.0469 9.1276 15.0469 10ZM13.332 10C13.332 9.4349 13.2474 8.95833 13.0781 8.57031C12.9115 8.18229 12.6758 7.88802 12.3711 7.6875C12.0664 7.48698 11.7096 7.38672 11.3008 7.38672C10.8919 7.38672 10.5352 7.48698 10.2305 7.6875C9.92578 7.88802 9.6888 8.18229 9.51953 8.57031C9.35286 8.95833 9.26953 9.4349 9.26953 10C9.26953 10.5651 9.35286 11.0417 9.51953 11.4297C9.6888 11.8177 9.92578 12.112 10.2305 12.3125C10.5352 12.513 10.8919 12.6133 11.3008 12.6133C11.7096 12.6133 12.0664 12.513 12.3711 12.3125C12.6758 12.112 12.9115 11.8177 13.0781 11.4297C13.2474 11.0417 13.332 10.5651 13.332 10Z" fill="black"/>
</svg>
